D:\school\WTK\thesis\model\3dpredictsim\Results\batch_windlass\Pog_s1_tmt_aCst_d00_k1000_WL10_ig24_act_TTC_GRF.mot
nRows=25
nColumns=19

name D:\school\WTK\thesis\model\3dpredictsim\Results\batch_windlass\Pog_s1_tmt_aCst_d00_k1000_WL10_ig24_act_TTC_GRF.mot
datacolumns 19
datarows 25
range 0.6116550389 0.9052494575
endheader
time 	ground_force_vx	ground_force_vy	ground_force_vz	ground_force_px	ground_force_py	ground_force_pz	1_ground_force_vx	1_ground_force_vy	1_ground_force_vz	1_ground_force_px	1_ground_force_py	1_ground_force_pz	ground_torque_x	ground_torque_y	ground_torque_z	1_ground_torque_x	1_ground_torque_y	1_ground_torque_z
        0.6116550389	      119.6304506332	      443.9254236216	        0.2736246262	        0.3936888926	        0.0000000000	        0.0370770295	      -35.4821235141	       23.7550940811	       -4.6444712072	        0.9306765981	        0.0000000000	       -0.0633108516	        0.0000000000	        0.0000000000	        0.0000000000	        0.0000000000	        0.0000000000	        0.0000000000	
        0.6238881397	       84.2739561206	      340.6247597959	        3.3893848741	        0.4019926305	        0.0000000000	        0.0340595371	      -75.9437911359	       59.4911173093	      -11.8619949512	        0.9461465091	        0.0000000000	       -0.0617406488	        0.0000000000	        0.0000000000	        0.0000000000	        0.0000000000	        0.0000000000	        0.0000000000	
        0.6361212404	       47.9020395332	      230.9579462466	       12.3494649719	        0.4152131178	        0.0000000000	        0.0290955165	     -157.3886571502	      158.1861427504	      -30.4036261001	        0.9598791784	        0.0000000000	       -0.0614936699	        0.0000000000	        0.0000000000	        0.0000000000	        0.0000000000	        0.0000000000	        0.0000000000	
        0.6483543412	       30.9444555252	      181.5012375417	       18.1559076967	        0.4173885493	        0.0000000000	        0.0283463506	      -99.5045280468	      442.2864803208	        5.1390489349	        0.9768721564	        0.0000000000	       -0.0627120462	        0.0000000000	        0.0000000000	        0.0000000000	        0.0000000000	        0.0000000000	        0.0000000000	
        0.6605874420	       18.5738260179	      122.9394539372	       17.3108006616	        0.4173254833	        0.0000000000	        0.0285335123	     -132.0331933346	      762.6805121962	       26.1507082468	        0.9878871396	        0.0000000000	       -0.0633492931	        0.0000000000	        0.0000000000	        0.0000000000	        0.0000000000	        0.0000000000	        0.0000000000	
        0.6728205428	       -1.9550271480	       49.3369013426	       10.6398347345	        0.4160303578	        0.0000000000	        0.0288148173	     -183.0796655076	      984.3041224363	       31.3552710320	        1.0014608545	        0.0000000000	       -0.0619001970	        0.0000000000	        0.0000000000	        0.0000000000	        0.0000000000	        0.0000000000	        0.0000000000	
        0.6850536435	        0.8135289602	       -0.8041377495	        0.0232173436	        0.0000000000	        0.0000000000	        0.0000000000	     -189.5658680000	     1004.4467952827	       27.2877759905	        1.0121391535	        0.0000000000	       -0.0601222384	        0.0000000000	        0.0000000000	        0.0000000000	        0.0000000000	        0.0000000000	        0.0000000000	
        0.6972867443	       -1.0298140780	        0.8873265387	       -0.0806509339	        0.0000000000	        0.0000000000	        0.0000000000	     -160.2079005803	      893.7159925793	       22.7724901408	        1.0165755321	        0.0000000000	       -0.0591205339	        0.0000000000	        0.0000000000	        0.0000000000	        0.0000000000	        0.0000000000	        0.0000000000	
        0.7095198451	       -1.3539402191	        1.0135625824	       -0.1269188121	        0.0000000000	        0.0000000000	        0.0000000000	     -134.0251961830	      795.3735246363	       18.2647445617	        1.0195444851	        0.0000000000	       -0.0586237907	        0.0000000000	        0.0000000000	        0.0000000000	        0.0000000000	        0.0000000000	        0.0000000000	
        0.7217529459	        0.1254918400	       -0.0884506548	        0.0093774082	        0.0000000000	        0.0000000000	        0.0000000000	     -115.1349366304	      741.2200247904	       16.8867834027	        1.0227333902	        0.0000000000	       -0.0582976321	        0.0000000000	        0.0000000000	        0.0000000000	        0.0000000000	        0.0000000000	        0.0000000000	
        0.7339860466	        0.0484838364	       -0.0323702668	        0.0027681262	        0.0000000000	        0.0000000000	        0.0000000000	     -100.4919827719	      708.6293517312	       16.0144617520	        1.0256746477	        0.0000000000	       -0.0580768555	        0.0000000000	        0.0000000000	        0.0000000000	        0.0000000000	        0.0000000000	        0.0000000000	
        0.7462191474	       -0.0028967318	        0.0018627965	       -0.0001134478	        0.0000000000	        0.0000000000	        0.0000000000	      -86.4378047586	      685.3817735640	       16.8035853985	        1.0283723060	        0.0000000000	       -0.0579330351	        0.0000000000	        0.0000000000	        0.0000000000	        0.0000000000	        0.0000000000	        0.0000000000	
        0.7584522482	       -0.0169513233	        0.0106621150	       -0.0002651839	        0.0000000000	        0.0000000000	        0.0000000000	      -73.1574121661	      665.4097792125	       17.4858762088	        1.0310875894	        0.0000000000	       -0.0578463556	        0.0000000000	        0.0000000000	        0.0000000000	        0.0000000000	        0.0000000000	        0.0000000000	
        0.7706853490	       -0.0129224217	        0.0076939645	       -0.0002502137	        0.0000000000	        0.0000000000	        0.0000000000	      -60.8791673530	      648.5505800835	       18.9769105798	        1.0347714083	        0.0000000000	       -0.0576764791	        0.0000000000	        0.0000000000	        0.0000000000	        0.0000000000	        0.0000000000	        0.0000000000	
        0.7829184498	       -0.0060783615	        0.0033572815	       -0.0002054796	        0.0000000000	        0.0000000000	        0.0000000000	      -51.3990684157	      635.7364192715	       20.3837588193	        1.0396936870	        0.0000000000	       -0.0573449990	        0.0000000000	        0.0000000000	        0.0000000000	        0.0000000000	        0.0000000000	        0.0000000000	
        0.7951515505	       -0.0033947363	        0.0017369392	       -0.0001712028	        0.0000000000	        0.0000000000	        0.0000000000	      -44.0128338271	      625.4844608447	       21.5005695184	        1.0455067976	        0.0000000000	       -0.0568564164	        0.0000000000	        0.0000000000	        0.0000000000	        0.0000000000	        0.0000000000	        0.0000000000	
        0.8073846513	       -0.0024673038	        0.0011846489	       -0.0001519795	        0.0000000000	        0.0000000000	        0.0000000000	      -38.2160482809	      615.4396514782	       21.7690556642	        1.0516966977	        0.0000000000	       -0.0562721607	        0.0000000000	        0.0000000000	        0.0000000000	        0.0000000000	        0.0000000000	        0.0000000000	
        0.8196177521	       -0.0024433125	        0.0011185222	       -0.0001617951	        0.0000000000	        0.0000000000	        0.0000000000	      -33.5602077858	      606.0076013048	       21.2788071771	        1.0578288022	        0.0000000000	       -0.0556572532	        0.0000000000	        0.0000000000	        0.0000000000	        0.0000000000	        0.0000000000	        0.0000000000	
        0.8318508529	       -0.0032116202	        0.0014193988	       -0.0002102707	        0.0000000000	        0.0000000000	        0.0000000000	      -29.4228110491	      597.8410889022	       20.5264307020	        1.0638266670	        0.0000000000	       -0.0550231633	        0.0000000000	        0.0000000000	        0.0000000000	        0.0000000000	        0.0000000000	        0.0000000000	
        0.8440839536	       -0.0053335338	        0.0022933748	       -0.0003290202	        0.0000000000	        0.0000000000	        0.0000000000	      -25.4894330294	      590.2543621738	       19.8174136556	        1.0696649464	        0.0000000000	       -0.0543706099	        0.0000000000	        0.0000000000	        0.0000000000	        0.0000000000	        0.0000000000	        0.0000000000	
        0.8563170544	       -0.0106913544	        0.0044906046	       -0.0006064409	        0.0000000000	        0.0000000000	        0.0000000000	      -22.7454167121	      584.1949581274	       19.3833002726	        1.0752510352	        0.0000000000	       -0.0537143367	        0.0000000000	        0.0000000000	        0.0000000000	        0.0000000000	        0.0000000000	        0.0000000000	
        0.8685501552	       -0.0244596536	        0.0100548055	       -0.0012700321	        0.0000000000	        0.0000000000	        0.0000000000	      -20.1632511183	      579.5730515440	       19.3110666772	        1.0804910077	        0.0000000000	       -0.0530796780	        0.0000000000	        0.0000000000	        0.0000000000	        0.0000000000	        0.0000000000	        0.0000000000	
        0.8807832560	       -0.0591045382	        0.0238215036	       -0.0028202289	        0.0000000000	        0.0000000000	        0.0000000000	      -17.3736098509	      575.5179873634	       19.5222726145	        1.0854562142	        0.0000000000	       -0.0524585038	        0.0000000000	        0.0000000000	        0.0000000000	        0.0000000000	        0.0000000000	        0.0000000000	
        0.8930163568	       -0.1394779648	        0.0552158095	       -0.0061574654	        0.0000000000	        0.0000000000	        0.0000000000	      -14.4746656154	      571.5624621237	       19.8309332083	        1.0901611093	        0.0000000000	       -0.0518501336	        0.0000000000	        0.0000000000	        0.0000000000	        0.0000000000	        0.0000000000	        0.0000000000	
        0.9052494575	       -0.2985343006	        0.1163865127	       -0.0122262434	        0.0000000000	        0.0000000000	        0.0000000000	      -11.5920187945	      567.5444702172	       20.1454065506	        1.0945960438	        0.0000000000	       -0.0512585189	        0.0000000000	        0.0000000000	        0.0000000000	        0.0000000000	        0.0000000000	        0.0000000000	
